<mxfile host="app.diagrams.net" agent="Mozilla/5.0 (Macintosh; Intel Mac OS X 10_15_7) AppleWebKit/537.36 (KHTML, like Gecko) Chrome/138.0.0.0 Safari/537.36" version="28.0.7">
  <diagram name="第 1 页" id="fUD8UUl_zqNyeXUvFWrr">
    <mxGraphModel dx="1845" dy="655" grid="1" gridSize="10" guides="1" tooltips="1" connect="1" arrows="1" fold="1" page="1" pageScale="1" pageWidth="827" pageHeight="1169" math="0" shadow="0">
      <root>
        <mxCell id="0" />
        <mxCell id="1" parent="0" />
        <mxCell id="m_zHExUfeF9yj6iozSSD-8" value="" style="edgeStyle=orthogonalEdgeStyle;rounded=0;orthogonalLoop=1;jettySize=auto;html=1;" parent="1" source="m_zHExUfeF9yj6iozSSD-1" target="m_zHExUfeF9yj6iozSSD-7" edge="1">
          <mxGeometry relative="1" as="geometry" />
        </mxCell>
        <mxCell id="m_zHExUfeF9yj6iozSSD-1" value="枚举值获取" style="ellipse;whiteSpace=wrap;html=1;" parent="1" vertex="1">
          <mxGeometry x="-40" y="150" width="120" height="80" as="geometry" />
        </mxCell>
        <mxCell id="8SZU6OC8F64CNyh53qsG-18" value="" style="edgeStyle=orthogonalEdgeStyle;rounded=0;orthogonalLoop=1;jettySize=auto;html=1;" edge="1" parent="1" source="m_zHExUfeF9yj6iozSSD-2" target="8SZU6OC8F64CNyh53qsG-17">
          <mxGeometry relative="1" as="geometry" />
        </mxCell>
        <mxCell id="m_zHExUfeF9yj6iozSSD-2" value="枚举值刷新" style="ellipse;whiteSpace=wrap;html=1;" parent="1" vertex="1">
          <mxGeometry x="354" y="20" width="120" height="80" as="geometry" />
        </mxCell>
        <mxCell id="m_zHExUfeF9yj6iozSSD-5" style="edgeStyle=orthogonalEdgeStyle;rounded=0;orthogonalLoop=1;jettySize=auto;html=1;entryX=0.5;entryY=0;entryDx=0;entryDy=0;" parent="1" source="m_zHExUfeF9yj6iozSSD-3" target="m_zHExUfeF9yj6iozSSD-1" edge="1">
          <mxGeometry relative="1" as="geometry" />
        </mxCell>
        <mxCell id="m_zHExUfeF9yj6iozSSD-3" value="获取枚举值接口" style="ellipse;whiteSpace=wrap;html=1;" parent="1" vertex="1">
          <mxGeometry x="-170" y="20" width="120" height="80" as="geometry" />
        </mxCell>
        <mxCell id="m_zHExUfeF9yj6iozSSD-6" style="edgeStyle=orthogonalEdgeStyle;rounded=0;orthogonalLoop=1;jettySize=auto;html=1;" parent="1" source="m_zHExUfeF9yj6iozSSD-4" target="m_zHExUfeF9yj6iozSSD-1" edge="1">
          <mxGeometry relative="1" as="geometry">
            <Array as="points">
              <mxPoint x="20" y="60" />
            </Array>
          </mxGeometry>
        </mxCell>
        <mxCell id="m_zHExUfeF9yj6iozSSD-4" value="获取标签分布接口" style="ellipse;whiteSpace=wrap;html=1;" parent="1" vertex="1">
          <mxGeometry x="70" y="20" width="120" height="80" as="geometry" />
        </mxCell>
        <mxCell id="m_zHExUfeF9yj6iozSSD-10" value="" style="edgeStyle=orthogonalEdgeStyle;rounded=0;orthogonalLoop=1;jettySize=auto;html=1;" parent="1" source="m_zHExUfeF9yj6iozSSD-7" target="m_zHExUfeF9yj6iozSSD-9" edge="1">
          <mxGeometry relative="1" as="geometry" />
        </mxCell>
        <mxCell id="m_zHExUfeF9yj6iozSSD-12" value="存在返回" style="edgeLabel;html=1;align=center;verticalAlign=middle;resizable=0;points=[];" parent="m_zHExUfeF9yj6iozSSD-10" vertex="1" connectable="0">
          <mxGeometry y="3" relative="1" as="geometry">
            <mxPoint as="offset" />
          </mxGeometry>
        </mxCell>
        <mxCell id="8SZU6OC8F64CNyh53qsG-2" value="" style="edgeStyle=orthogonalEdgeStyle;rounded=0;orthogonalLoop=1;jettySize=auto;html=1;" edge="1" parent="1" source="m_zHExUfeF9yj6iozSSD-7" target="8SZU6OC8F64CNyh53qsG-1">
          <mxGeometry relative="1" as="geometry" />
        </mxCell>
        <mxCell id="8SZU6OC8F64CNyh53qsG-4" value="不存在" style="edgeLabel;html=1;align=center;verticalAlign=middle;resizable=0;points=[];" vertex="1" connectable="0" parent="8SZU6OC8F64CNyh53qsG-2">
          <mxGeometry x="-0.3" y="2" relative="1" as="geometry">
            <mxPoint as="offset" />
          </mxGeometry>
        </mxCell>
        <mxCell id="m_zHExUfeF9yj6iozSSD-7" value="判断缓存是否存在" style="ellipse;shape=cloud;whiteSpace=wrap;html=1;" parent="1" vertex="1">
          <mxGeometry x="-40" y="280" width="120" height="80" as="geometry" />
        </mxCell>
        <mxCell id="m_zHExUfeF9yj6iozSSD-9" value="结束" style="rounded=1;whiteSpace=wrap;html=1;" parent="1" vertex="1">
          <mxGeometry x="-240" y="290" width="120" height="60" as="geometry" />
        </mxCell>
        <mxCell id="8SZU6OC8F64CNyh53qsG-26" value="" style="edgeStyle=orthogonalEdgeStyle;rounded=0;orthogonalLoop=1;jettySize=auto;html=1;" edge="1" parent="1" source="8SZU6OC8F64CNyh53qsG-1" target="8SZU6OC8F64CNyh53qsG-25">
          <mxGeometry relative="1" as="geometry" />
        </mxCell>
        <mxCell id="8SZU6OC8F64CNyh53qsG-1" value="读取holo" style="shape=cylinder3;whiteSpace=wrap;html=1;boundedLbl=1;backgroundOutline=1;size=15;" vertex="1" parent="1">
          <mxGeometry x="-10" y="410" width="60" height="80" as="geometry" />
        </mxCell>
        <mxCell id="8SZU6OC8F64CNyh53qsG-7" value="封装返回" style="rounded=1;whiteSpace=wrap;html=1;" vertex="1" parent="1">
          <mxGeometry x="-30" y="720" width="100" height="50" as="geometry" />
        </mxCell>
        <mxCell id="8SZU6OC8F64CNyh53qsG-11" value="" style="endArrow=none;dashed=1;html=1;rounded=0;exitX=1;exitY=0;exitDx=0;exitDy=0;entryX=0.025;entryY=0.406;entryDx=0;entryDy=0;entryPerimeter=0;" edge="1" parent="1" source="8SZU6OC8F64CNyh53qsG-7" target="m_zHExUfeF9yj6iozSSD-2">
          <mxGeometry width="50" height="50" relative="1" as="geometry">
            <mxPoint x="150" y="330" as="sourcePoint" />
            <mxPoint x="200" y="280" as="targetPoint" />
          </mxGeometry>
        </mxCell>
        <mxCell id="8SZU6OC8F64CNyh53qsG-12" value="异步触发" style="edgeLabel;html=1;align=center;verticalAlign=middle;resizable=0;points=[];" vertex="1" connectable="0" parent="8SZU6OC8F64CNyh53qsG-11">
          <mxGeometry x="0.0963" y="3" relative="1" as="geometry">
            <mxPoint y="1" as="offset" />
          </mxGeometry>
        </mxCell>
        <mxCell id="8SZU6OC8F64CNyh53qsG-20" value="" style="edgeStyle=orthogonalEdgeStyle;rounded=0;orthogonalLoop=1;jettySize=auto;html=1;" edge="1" parent="1" source="8SZU6OC8F64CNyh53qsG-17" target="8SZU6OC8F64CNyh53qsG-19">
          <mxGeometry relative="1" as="geometry" />
        </mxCell>
        <mxCell id="8SZU6OC8F64CNyh53qsG-24" value="存在" style="edgeLabel;html=1;align=center;verticalAlign=middle;resizable=0;points=[];" vertex="1" connectable="0" parent="8SZU6OC8F64CNyh53qsG-20">
          <mxGeometry x="-0.1419" relative="1" as="geometry">
            <mxPoint as="offset" />
          </mxGeometry>
        </mxCell>
        <mxCell id="8SZU6OC8F64CNyh53qsG-22" value="" style="edgeStyle=orthogonalEdgeStyle;rounded=0;orthogonalLoop=1;jettySize=auto;html=1;" edge="1" parent="1" source="8SZU6OC8F64CNyh53qsG-17" target="8SZU6OC8F64CNyh53qsG-21">
          <mxGeometry relative="1" as="geometry" />
        </mxCell>
        <mxCell id="8SZU6OC8F64CNyh53qsG-17" value="判断接口参数是&lt;div&gt;否传入枚举值&lt;/div&gt;" style="rhombus;whiteSpace=wrap;html=1;" vertex="1" parent="1">
          <mxGeometry x="349" y="165" width="129" height="75" as="geometry" />
        </mxCell>
        <mxCell id="8SZU6OC8F64CNyh53qsG-19" value="写入缓存" style="ellipse;shape=cloud;whiteSpace=wrap;html=1;" vertex="1" parent="1">
          <mxGeometry x="354" y="430" width="120" height="80" as="geometry" />
        </mxCell>
        <mxCell id="8SZU6OC8F64CNyh53qsG-29" value="" style="edgeStyle=orthogonalEdgeStyle;rounded=0;orthogonalLoop=1;jettySize=auto;html=1;" edge="1" parent="1" source="8SZU6OC8F64CNyh53qsG-21" target="8SZU6OC8F64CNyh53qsG-28">
          <mxGeometry relative="1" as="geometry" />
        </mxCell>
        <mxCell id="8SZU6OC8F64CNyh53qsG-21" value="查询holo结果&lt;div&gt;&lt;br&gt;&lt;/div&gt;" style="shape=process;whiteSpace=wrap;html=1;backgroundOutline=1;" vertex="1" parent="1">
          <mxGeometry x="480" y="250" width="120" height="40" as="geometry" />
        </mxCell>
        <mxCell id="8SZU6OC8F64CNyh53qsG-27" value="符合" style="edgeStyle=orthogonalEdgeStyle;rounded=0;orthogonalLoop=1;jettySize=auto;html=1;" edge="1" parent="1" source="8SZU6OC8F64CNyh53qsG-25" target="8SZU6OC8F64CNyh53qsG-7">
          <mxGeometry relative="1" as="geometry" />
        </mxCell>
        <mxCell id="8SZU6OC8F64CNyh53qsG-25" value="判断结果数量" style="rhombus;whiteSpace=wrap;html=1;" vertex="1" parent="1">
          <mxGeometry x="-20" y="550" width="80" height="80" as="geometry" />
        </mxCell>
        <mxCell id="8SZU6OC8F64CNyh53qsG-30" style="edgeStyle=orthogonalEdgeStyle;rounded=0;orthogonalLoop=1;jettySize=auto;html=1;" edge="1" parent="1" source="8SZU6OC8F64CNyh53qsG-28" target="8SZU6OC8F64CNyh53qsG-19">
          <mxGeometry relative="1" as="geometry">
            <Array as="points">
              <mxPoint x="540" y="470" />
            </Array>
          </mxGeometry>
        </mxCell>
        <mxCell id="8SZU6OC8F64CNyh53qsG-28" value="判断结果&lt;div&gt;数量&lt;/div&gt;" style="rhombus;whiteSpace=wrap;html=1;" vertex="1" parent="1">
          <mxGeometry x="500" y="350" width="80" height="80" as="geometry" />
        </mxCell>
      </root>
    </mxGraphModel>
  </diagram>
</mxfile>
